<?xml version="1.0" encoding="utf-8"?>
<!-- Generator: Adobe Illustrator 17.0.0, SVG Export Plug-In . SVG Version: 6.00 Build 0)  -->
<!DOCTYPE svg PUBLIC "-//W3C//DTD SVG 1.1//EN" "http://www.w3.org/Graphics/SVG/1.1/DTD/svg11.dtd">
<svg version="1.1" id="Layer_1" xmlns="http://www.w3.org/2000/svg" xmlns:xlink="http://www.w3.org/1999/xlink" x="0px" y="0px"
	 width="191px" height="176px" viewBox="0 0 191 176" style="enable-background:new 0 0 191 176;" xml:space="preserve">
<g>
	<path style="fill:#3953A4;" d="M182.02,92.61l-0.03,0c4.63-10.93,6.7-22.05,6.14-33.11c-0.48-9.73-3.1-19.34-7.77-28.54
		c-4.33-8.54-13.36-16.17-24.78-20.93c-4.51-1.89-9.44-2.84-14.64-2.84c-7.95,0-16.17,2.21-23.76,6.38
		c-7.66,4.21-14.44,11.48-18.52,19.56c-4.08-8.08-10.85-15.35-18.52-19.56c-7.59-4.17-15.81-6.38-23.76-6.38
		c-5.2,0-10.13,0.96-14.64,2.84c-1.23,0.52-2.49,1.09-3.79,1.74c-1.25,0.62-2.49,1.29-3.68,2l0,0c-0.01,0-0.02,0.01-0.03,0.02
		c-2.52,1.48-4.9,3.13-7.06,4.9c-0.01,0.01-0.01,0.01-0.02,0.02c-4.51,3.71-7.94,7.83-10.19,12.27c-4.67,9.21-7.29,18.81-7.77,28.54
		c-1.35,27.13,12.69,53.54,42.99,80.81c0.02,0.02,0.04,0.04,0.06,0.06c1.62,1.45,3.26,2.89,4.94,4.32c0,0.01,0.19,0.16,0.19,0.16
		c3.34,2.85,6.88,5.73,10.51,8.56l0.27,0.21c1.67,1.3,3.35,2.59,5.05,3.87l0.6,0.45c3.49,2.61,7.16,5.27,10.91,7.9l1.19,0.83
		c1.43,0.99,2.87,1.99,4.32,2.98l1.43,0.98c1.81,1.23,3.63,2.45,5.46,3.67c0.47,0.31,1.01,0.46,1.55,0.46
		c0.54,0,1.08-0.16,1.55-0.46c26.26-17.42,62.81-44.12,79.02-75.81"/>
	<g>
		<g>
			<path style="fill:#EE2636;" d="M90.82,167.38C48.93,139.59,1.15,101.57,3.53,53.84C4,44.32,6.57,34.91,11.14,25.89
				c4.18-8.24,12.95-15.63,24.06-20.27c4.34-1.81,9.09-2.73,14.1-2.73c7.72,0,15.7,2.15,23.09,6.2
				c8.28,4.54,15.49,12.78,19.19,21.68c3.7-8.9,10.91-17.14,19.19-21.68c7.39-4.06,15.37-6.2,23.09-6.2c5.01,0,9.76,0.92,14.1,2.73
				c11.11,4.64,19.89,12.03,24.06,20.27c4.58,9.03,7.14,18.43,7.62,27.96c2.38,47.73-45.4,85.75-87.29,113.54l-0.77,0.51
				L90.82,167.38z"/>
			<path style="fill:#1E4D7E;" d="M133.88,4.32c4.62,0,9.23,0.81,13.56,2.62c9.14,3.82,18.71,10.47,23.35,19.6
				c4.34,8.55,6.98,17.76,7.46,27.37c2.2,44.07-38.38,80.24-86.66,112.27C43.32,134.16,2.74,97.98,4.94,53.91
				c0.48-9.62,3.12-18.82,7.46-27.37c4.63-9.13,14.2-15.78,23.34-19.6c4.34-1.81,8.94-2.62,13.56-2.62c7.78,0,15.63,2.3,22.42,6.03
				c8.7,4.77,16.85,14.39,19.86,24.65c3.01-10.26,11.17-19.88,19.86-24.65C118.25,6.62,126.1,4.32,133.88,4.32 M133.88,1.45
				c-7.95,0-16.17,2.21-23.77,6.38c-7.66,4.2-14.44,11.48-18.52,19.56c-4.08-8.08-10.85-15.35-18.52-19.56
				c-7.59-4.17-15.81-6.38-23.77-6.38c-5.2,0-10.13,0.96-14.64,2.84C23.25,9.07,14.22,16.7,9.89,25.23
				C5.22,34.44,2.6,44.04,2.12,53.77C1.06,75.01,9.26,95.51,27.2,116.44c14.16,16.53,34.13,33.09,62.84,52.14l1.55,1.03l1.55-1.03
				c28.71-19.04,48.68-35.61,62.84-52.14c17.94-20.93,26.15-41.43,25.09-62.67c-0.48-9.73-3.1-19.33-7.77-28.54
				c-4.33-8.54-13.36-16.17-24.78-20.94C144.01,2.41,139.08,1.45,133.88,1.45L133.88,1.45z"/>
		</g>
		<g>
			<path style="fill:#C81623;" d="M178.25,53.91c-0.48-9.62-3.12-18.82-7.46-27.37c-4.63-9.13-14.21-15.78-23.35-19.6
				c-11.63-4.86-25.15-2.54-35.98,3.41c-8.7,4.77-16.85,14.39-19.86,24.65c-3.01-10.26-11.17-19.88-19.86-24.65
				C60.9,4.4,47.38,2.08,35.75,6.94c-4.77,1.99-9.64,4.76-13.89,8.24c9.69-2.94,21.28-3.35,30.83-0.32
				c9.32,2.95,16.93,8.1,23.02,15.84c5.75,7.3,9.75,15.87,14.24,23.99c5.67-6.27,8.92-14.3,14.46-20.67
				c5.79-6.66,13.53-9.8,22.08-11.06c7.47-1.11,16.11-0.15,22.16,4.83c7.21,5.93,10.5,16.2,10.99,25.35
				c1.06,19.79-8.46,37.45-18.56,53.67c-9.54,15.31-21.55,30.7-38.47,37.95c-9.08,3.89-17.8,4.13-27.16,0.9
				c-9.76-3.37-19.49-7.94-28.43-13.17c13.12,11.79,28.41,22.99,44.57,33.7C139.87,134.16,180.45,97.98,178.25,53.91z"/>
		</g>
		<path style="fill:#52204E;" d="M152.4,81.85l-30.79-1.76l-1.49-0.08l-0.31,1.43l-5.23,23.96l-1.35-22.12l-1.85-28.37l-0.9-13.74
			l-2.24,13.63l-4.99,30.4l-0.62-3.35l-0.28-1.52l-1.65-0.01l-32.64-0.07h-1.39l-0.51,1.23L61.2,93.54l-9.74-6.1l-2.41-1.51
			l-0.59,2.67c-1.22,5.5-2.39,11.02-3.56,16.53L34.6,54.77l-1.23-6.03l-1.56,5.91l-11.06,41.8l12.07-35.84l10.38,53.12l1.52,7.76
			l1.82-7.72c1.7-7.24,3.45-14.47,5.13-21.72l9.39,6l2.09,1.34l0.92-2.23l5.38-13.03l29.61-0.06l2.44,12.37l2.1,10.65l1.6-10.71
			l4.16-27.87l1.29,14.96l2.56,28.33l0.42,4.68l1.3-4.55l8.1-28.4L152.4,81.85z"/>
	</g>
</g>
</svg>
