<?xml version="1.0" encoding="utf-8"?>
<!-- Generator: Adobe Illustrator 17.0.0, SVG Export Plug-In . SVG Version: 6.00 Build 0)  -->
<!DOCTYPE svg PUBLIC "-//W3C//DTD SVG 1.1//EN" "http://www.w3.org/Graphics/SVG/1.1/DTD/svg11.dtd">
<svg version="1.1" id="Layer_1" xmlns="http://www.w3.org/2000/svg" xmlns:xlink="http://www.w3.org/1999/xlink" x="0px" y="0px"
	 width="200px" height="200px" viewBox="0 0 200 200" style="enable-background:new 0 0 200 200;" xml:space="preserve">
<g>
	<path style="fill:#02343D;" d="M134.85,149.19l-18.25-30.01c-2.36-3.89-7.06-5.6-11.35-4.47H88.77c-3.5-0.92-7.26,0.06-9.82,2.56
		c-1.73,1.41-3.04,3.3-3.7,5.48l-16.08,26.44c-2.83,4.66-1.23,10.66,3.58,13.41l3.17,1.81c4.81,2.75,11.01,1.19,13.84-3.47
		l9.85-16.2h14.81l9.85,16.2c2.83,4.66,9.03,6.21,13.84,3.47l3.17-1.81C136.09,159.85,137.69,153.85,134.85,149.19z"/>
	<path style="opacity:0.2;fill:#010101;" d="M163.5,168.94c-5.79-1.17-25.82-2.03-49.65-2.03c-4.24,0-31.8,0.03-56.86,0.08
		c2.29,1.86,4.64,3.65,7.08,5.34c22.95,0.02,47,0.03,49.77,0.03c21.68,0,40.2-0.71,47.73-1.72
		C162.22,170.06,162.86,169.5,163.5,168.94z"/>
	<g>
		<path style="fill:#EAD8B8;" d="M164.91,146.71c-0.92-2.67-3.68-7.73-9.02-8.44c-1.73-0.36-6.78-1.18-7.53-0.39
			c-0.75,0.79-1,0.31-2.33-0.5c-1.19-0.73-3.75-2.26-4.4-2.22c-0.85,0.05-0.86,0.93-0.94,1.79c-0.08,0.86-0.6,1-1.13,1
			s-0.98-0.14-1.35-0.29c-0.38-0.14-1.28,0.07-1.43,0.5c-0.68-0.14-1.13-0.36-1.43,0.14c-0.3,0.5-0.45,1.22-1.8,0.93
			c-1.35-0.29-3.38,0.07-3.46,2.15c-0.08,2.08,1.22,5.36,1.43,6.67c0.53,3.31-16.76-0.26-16.98,0.72
			c-0.56,2.4,4.03,13.81,5.23,14.03c1.2,0.22,14.98-0.51,22.87,3.04C154.26,172.58,171.62,166.13,164.91,146.71z"/>
		<path style="fill:#D0852A;" d="M156.3,146.65c-0.19-2.57-0.6-6.07-0.16-8.35c4.71-2.36,11.16,0.85,11.39,1.92
			c-0.9,1.07-0.9,2.79,0.9,6c1.8,3.21,3.14,17.35-5.39,19.93c-2.92,4.07-16.84,8.36-26.17-2.4c0.57-6.6,12.1-2.71,12.7-7.88
			c0.38-3.31-7.68-4.62-7.68-4.62s2.5-0.99,5.37-2.21C153.55,149.03,156.3,146.65,156.3,146.65z"/>
	</g>
	<path style="fill:#01808F;" d="M118.84,147.99c-11.27-9.31-20.98-12.6-30.24-12.36c-8.59,0.22-10.31,0.47-14.2,0.47
		c-1.11,0-38.15,0.03-59.61,0.07c1.99,3.46,4.02,6.89,6.08,10.31c7.56,9.75,15.23,25.88,29.01,24.78h53.54
		c2.03,0.02,4.13,0.03,6.33,0.03c9.87,0,17.66-8.26,17.66-8.26C125.07,160.21,119.88,151.28,118.84,147.99z"/>
	<path style="fill:#1C4B7C;" d="M110.62,153.49l-63.85,4.52c0.42,0.4,0.84,0.79,1.27,1.19l62.74-4.43c4.95-0.44,8.32,2,9.12,7.51
		c0.02-0.24,0.04-0.48,0.04-0.73C119.93,156.63,115.76,153.03,110.62,153.49z"/>
	<path style="fill:#1C4B7C;" d="M94.94,137.96c-7.42,0.2-8.9,0.43-12.27,0.43c-0.08,0-0.4,0-0.93,0c-0.15,0.38-0.19,0.79-0.1,1.24
		c0.35,1.74-0.25,3.2,4.09,4.97c4.34,1.78,15.38,3.67,16.87,2.6c1.49-1.07,2.73-0.36,3.22-1.18c0.5-0.83-0.25-2.37,1.24-2.96
		c1.05-0.42,2.52-1.01,3.3-1.32C104.92,138.91,99.86,137.83,94.94,137.96z"/>
	<g>
		<path style="fill:#3953A4;" d="M113.08,118.39c0,0-6.57,3.82-17.03,3.82c-9.62,0-17.04-3.82-17.04-3.82V70.14h34.07V118.39z"/>
		<g>
			<g>
				<g>
					<g>
						<g>
							<path style="fill:#EFB06B;" d="M107.96,36.3c-0.83,2.45-0.55,4.74,0.64,5.11c1.19,0.37,2.82-1.33,3.66-3.78
								c0.83-2.45,0.55-4.74-0.64-5.11C110.43,32.16,108.79,33.85,107.96,36.3z"/>
							<path style="fill:#EFB06B;" d="M85.75,36.67c0.86,2.45,0.6,4.74-0.58,5.11c-1.18,0.38-2.84-1.3-3.7-3.74
								c-0.86-2.45-0.6-4.74,0.58-5.11C83.23,32.55,84.89,34.23,85.75,36.67z"/>
							<g>
								<g>
									
										<rect x="89.46" y="38.02" transform="matrix(-1 1.619728e-003 -1.619728e-003 -1 193.8541 102.1359)" style="fill:#EFB06B;" width="14.86" height="26.25"/>
									<g>
										<path style="fill:#EFB06B;" d="M83.18,32.96c1.56,15.96,8.6,20.09,13.16,20.1c4.57,0.01,13.66-3.98,13.7-20.01
											c0.02-8.07-6.83-12.21-13.63-12.22C89.61,20.81,81.72,18.08,83.18,32.96z"/>
									</g>
								</g>
							</g>
							<path style="fill:#886356;" d="M111.76,20.47c-2.82-6.42-8.94-9.33-15.03-8.8c-6.09-0.54-12.21,2.38-15.03,8.8
								c-3.12,7.1-2.02,13.15,2.91,18.85c-0.64-3.16,1.61-5.32,0.51-9.49c2.7,0.44,7.08,0.84,11.45,0.89v0c0.05,0,0.11,0,0.16,0
								c0.05,0,0.11,0,0.16,0v0c4.38-0.05,8.75-0.45,11.45-0.89c-1.1,4.17,1.16,6.33,0.51,9.49
								C113.78,33.61,114.88,27.57,111.76,20.47z"/>
						</g>
					</g>
				</g>
			</g>
		</g>
		<path style="fill:#3953A4;" d="M120.56,61.49l-16.19-5.95v0.07c0,3.93-3.34,7.12-7.46,7.12c-4.12,0-7.46-3.19-7.46-7.12v-0.26
			l-16.7,6.14c-3.79,1.39-6.86,5.66-6.86,9.53v3.49h61.52v-3.49C127.41,67.15,124.34,62.89,120.56,61.49z"/>
		<polygon style="fill:#103F66;" points="76.28,108.37 80.5,120.3 89.33,121.61 84.95,108.37 81.43,77.34 76.28,81.69 		"/>
		<polygon style="fill:#103F66;" points="117.72,75.78 111.79,76.23 108.78,107.39 104.49,121.35 113.38,119.45 117.72,108.37 		"/>
		<g>
			<g>
				<path style="fill:#EFB06B;" d="M90.69,137.07c0,0,3.72,2.64,7.46,2.31c1.45-0.26,1.11,0.79,0.41,1.12
					c-0.69,0.33-4.46,0.91-4.73,1.57c-0.28,0.66-3.32-2.87-3.32-2.87L90.69,137.07z"/>
				<path style="fill:#DF9A55;" d="M95.83,139.55c-0.95-0.28-1.9-0.71-2.77-1.17c-1.43-0.62-2.38-1.3-2.38-1.3l-0.18,2.13
					c0,0,3.04,3.53,3.32,2.87c0.28-0.66,4.04-1.24,4.73-1.57c0.09-0.04,0.17-0.1,0.25-0.16C97.73,140.06,96.67,139.79,95.83,139.55z
					"/>
				<path style="fill:#EFB06B;" d="M104.8,143.57c0.49-1.53-5.34-2.69-8.37-3.57c-3.03-0.88-6.11-3.36-6.11-3.36h-0.46l-7.73,1.6
					l1.15,2.19c0,0-0.08,3.03,7.94,4.77c4.53,0.98,10.42,2.46,10.76,0.81c1.93,0.09,2.66-0.55,2.66-1.21
					C104.96,144.72,105.47,144.2,104.8,143.57z"/>
			</g>
			<polygon style="fill:#3953A4;" points="90.69,137.07 82.56,140.5 70.42,108.86 65.9,74.52 81.41,72.06 82.27,106.55 			"/>
		</g>
		<path style="fill:#DF9A55;" d="M96.43,140c-0.33-0.1-1.46-0.74-1.78-0.86c-3.15,0.83-7.63,1.93-6.65,3.77
			c-0.67,0.61-0.16,1.12,0.15,1.2c0,0.09,0.02,0.18,0.05,0.26c0.85,0.3,1.84,0.58,3.01,0.83c1.01,0.22,2.1,0.46,3.17,0.69
			c2.12-0.26,4.84-0.89,7.2-1.39c1.28-0.27,2.35-0.57,3.25-0.89c-0.01-0.01-0.02-0.03-0.03-0.04
			C105.29,142.04,99.46,140.88,96.43,140z"/>
		<g>
			<g>
				<path style="fill:#EFB06B;" d="M102.62,135.68c0,0-3.72,2.58-7.46,2.26c-1.45-0.26-1.11,0.77-0.41,1.1
					c0.69,0.32,4.46,0.9,4.73,1.54c0.28,0.65,3.32-2.81,3.32-2.81L102.62,135.68z"/>
				<path style="fill:#DF9A55;" d="M97.48,138.1c0.95-0.27,1.9-0.69,2.77-1.15c1.43-0.61,2.38-1.27,2.38-1.27l0.18,2.09
					c0,0-3.04,3.46-3.32,2.81c-0.28-0.65-4.04-1.22-4.73-1.54c-0.09-0.04-0.17-0.09-0.25-0.16C95.58,138.6,96.64,138.34,97.48,138.1
					z"/>
				<path style="fill:#EFB06B;" d="M88.51,142.04c-0.49-1.5,5.34-2.63,8.37-3.49c3.03-0.86,6.11-3.29,6.11-3.29h0.46l7.73,1.57
					l-1.15,2.14c0,0,0.08,2.97-7.94,4.67c-4.53,0.96-10.42,2.41-10.76,0.79c-1.93,0.09-2.66-0.53-2.66-1.19
					C88.35,143.16,87.84,142.66,88.51,142.04z"/>
			</g>
			<polygon style="fill:#3953A4;" points="102.62,135.68 110.75,139.04 122.89,108.07 127.41,74.47 111.89,72.06 111.03,105.82 			
				"/>
		</g>
	</g>
</g>
<g>
	<g>
		<path style="fill:#1C4B7C;" d="M99.86,5.18C47.8,5.18,5.43,47.54,5.43,99.61c0,52.07,42.36,94.43,94.43,94.43
			c52.07,0,94.43-42.36,94.43-94.43C194.3,47.54,151.93,5.18,99.86,5.18z M99.86,190.29c-50.08,0-90.68-40.6-90.68-90.68
			c0-50.08,40.6-90.68,90.68-90.68c50.08,0,90.68,40.6,90.68,90.68C190.55,149.69,149.95,190.29,99.86,190.29z"/>
	</g>
</g>
</svg>
